<?xml version="1.0" encoding="UTF-8" standalone="no"?>
<svg width="514px" height="435px" viewBox="0 0 514 435" version="1.1" xmlns="http://www.w3.org/2000/svg" xmlns:xlink="http://www.w3.org/1999/xlink">
    <!-- Generator: Sketch 42 (36781) - http://www.bohemiancoding.com/sketch -->
    <title>icon-cut</title>
    <desc>Created with Sketch.</desc>
    <defs></defs>
    <g id="Page-1" stroke="none" stroke-width="1" fill="none" fill-rule="evenodd">
        <g id="icon-cut" fill="#2CB0C0">
            <path d="M98.6262413,281.185828 C72.2194532,281.185828 50.8131207,302.602122 50.8131207,328.998949 C50.8131207,355.395776 72.2194532,376.812069 98.6262413,376.812069 C125.033029,376.812069 146.439362,355.395776 146.439362,328.998949 C146.439362,302.602122 125.033029,281.185828 98.6262413,281.185828 Z M98.6262413,297.123535 C116.201548,297.123535 130.501655,311.427627 130.501655,328.998949 C130.501655,346.57027 116.201548,360.874362 98.6262413,360.874362 C81.0489428,360.874362 66.7508275,346.57027 66.7508275,328.998949 C66.7508275,311.427627 81.0489428,297.123535 98.6262413,297.123535 L98.6262413,297.123535 Z M98.6262413,58.0579315 C72.2194532,58.0579315 50.8131207,79.4742251 50.8131207,105.871052 C50.8131207,132.267879 72.2194532,153.684173 98.6262413,153.684173 C125.033029,153.684173 146.439362,132.267879 146.439362,105.871052 C146.439362,79.4742251 125.033029,58.0579315 98.6262413,58.0579315 Z M98.6262413,73.9956384 C116.201548,73.9956384 130.501655,88.2997303 130.501655,105.871052 C130.501655,123.442374 116.201548,137.746466 98.6262413,137.746466 C81.0489428,137.746466 66.7508275,123.442374 66.7508275,105.871052 C66.7508275,88.2997303 81.0489428,73.9956384 98.6262413,73.9956384 L98.6262413,73.9956384 Z M449.251808,344.936655 L273.939025,265.248121 L258.001318,233.372707 L136.287043,157.290079 C125.732296,165.039789 112.715174,169.62188 98.6262413,169.62188 C63.4138702,169.62188 34.8754138,141.073462 34.8754138,105.871052 C34.8754138,70.6686421 63.4138702,42.1202246 98.6262413,42.1202246 C133.834628,42.1202246 162.377069,70.6686421 162.377069,105.871052 C162.377069,118.900128 158.466354,130.99087 151.768533,141.073462 L481.131207,344.936655 L449.251808,344.936655 Z M151.770525,293.796538 C158.466354,303.877138 162.377069,315.967881 162.377069,328.998949 C162.377069,364.199366 133.834628,392.749776 98.6262413,392.749776 C63.4158624,392.749776 34.8754138,364.199366 34.8754138,328.998949 C34.8754138,293.796538 63.4158624,265.248121 98.6262413,265.248121 C112.717166,265.248121 125.732296,269.830212 136.287043,277.579922 L202.430518,236.221572 L223.149537,249.170959 L151.770525,293.796538 Z M273.939025,169.62188 L449.253801,89.9333453 L481.131207,89.9333453 L304.34817,198.726125 L270.044248,177.411434 L273.939025,169.62188 Z M497.825954,317.782787 L334.755322,217.435 L497.825954,117.085221 C509.978456,109.614421 515.676186,94.9716529 511.79137,81.247295 C507.906554,67.520945 495.395454,58.0579315 481.131207,58.0579315 L449.253801,58.0579315 C444.703585,58.0579315 440.205167,59.0341161 436.063356,60.9067966 L260.74858,140.595331 C254.102556,143.623495 248.693697,148.843094 245.428459,155.357632 L242.89038,160.437776 L191.578932,128.363141 C193.35001,121.051718 194.252483,113.521151 194.252483,105.871052 C194.252483,53.1351723 151.354152,10.2448109 98.6262413,10.2448109 C45.8983303,10.2448109 3,53.1351723 3,105.871052 C3,158.60494 45.8983303,201.497293 98.6262413,201.497293 C111.366446,201.497293 123.740083,199.024957 135.2491,194.243645 L172.362042,217.435 L135.2491,240.624364 C123.740083,235.843052 111.366446,233.372707 98.6262413,233.372707 C45.8943459,233.372707 3,276.265061 3,328.998949 C3,381.732836 45.8943459,424.62519 98.6262413,424.62519 C151.354152,424.62519 194.25049,381.732836 194.25049,328.998949 C194.25049,321.348849 193.348018,313.816291 191.580924,306.50686 L242.892372,274.430232 L245.428459,279.512369 C248.693697,286.026906 254.102556,291.244513 260.74858,294.27467 L436.061364,373.961212 C440.205167,375.835885 444.703585,376.812069 449.251808,376.812069 L481.131207,376.812069 C495.395454,376.812069 507.906554,367.349056 511.79137,353.620713 C515.676186,339.896356 509.978456,325.27351 497.825954,317.782787 L497.825954,317.782787 Z" id="Fill-177"></path>
        </g>
    </g>
</svg>