<?xml version="1.0" encoding="UTF-8" standalone="no"?>
<svg width="514px" height="435px" viewBox="0 0 514 435" version="1.1" xmlns="http://www.w3.org/2000/svg" xmlns:xlink="http://www.w3.org/1999/xlink">
    <!-- Generator: Sketch 42 (36781) - http://www.bohemiancoding.com/sketch -->
    <title>icon-trash</title>
    <desc>Created with Sketch.</desc>
    <defs></defs>
    <g id="Page-1" stroke="none" stroke-width="1" fill="none" fill-rule="evenodd">
        <g id="icon-trash" fill-rule="nonzero" fill="#2CB0C0">
            <g id="Trash" transform="translate(58.000000, 1.000000)">
                <g id="Layer_1">
                    <g id="Group">
                        <path d="M162.510636,56.124551 L162.510636,42.4167691 C162.510636,37.8535207 166.255455,34.1379903 170.868636,34.1379903 L229.338455,34.1379903 C233.915455,34.1379903 237.696455,37.8535207 237.696455,42.4167691 L237.696455,56.124551 L271.616909,56.124551 L271.616909,46.2585553 C271.616909,20.9352321 251.771182,0.319449629 227.384636,0.319449629 L172.261636,0.319449629 C147.838909,0.319449629 128.029364,20.9352321 128.029364,46.2585553 L128.029364,56.124551 L162.510636,56.124551 Z" id="Shape"></path>
                        <path d="M272.195818,431.916175 L128.210273,431.916175 C98.704,431.916175 74.625,408.306325 73.9556364,379.032996 L37.7557273,91.4581623 C37.7557273,68.8403223 50.0213636,55.3309425 70.5545455,55.3309425 L72.7797273,55.3489791 L326.468545,55.3850522 L329.978182,55.3309425 C350.439,55.3309425 362.650364,68.8403223 362.650364,91.4581623 L362.505636,93.7127317 L326.450455,379.032996 C325.799182,408.306325 301.702091,431.916175 272.195818,431.916175 Z M72.6711818,89.2035929 L108.997727,378.996923 C108.997727,389.043284 117.174818,397.249917 127.233364,397.249917 L272.340545,397.249917 C282.381,397.249917 290.576182,389.043284 290.576182,378.996923 L290.720909,376.70628 L326.902727,89.2035929 L72.6711818,89.2035929 L72.6711818,89.2035929 Z" id="Shape"></path>
                        <path d="M379.583455,88.8248253 L18.905,88.8248253 C8.91881818,88.8248253 0.814090909,81.1232163 0.814090909,71.6359883 C0.814090909,62.1487603 8.91881818,54.4471513 18.905,54.4471513 L379.601545,54.4471513 C389.623909,54.4471513 397.692455,62.1487603 397.692455,71.6359883 C397.674364,81.1051797 389.605818,88.8248253 379.583455,88.8248253 Z" id="Shape"></path>
                        <path d="M236.412,377.409706 C235.760727,377.409706 235.091364,377.355596 234.440091,377.28345 C224.490091,376.165184 217.344182,367.146906 218.411545,357.154655 L235.742636,197.242558 C236.828091,187.23227 245.855455,179.981574 255.696909,181.081804 C265.646909,182.182034 272.792818,191.218348 271.725455,201.228636 L254.394364,361.122697 C253.381273,370.447596 245.529818,377.409706 236.412,377.409706 Z" id="Shape"></path>
                        <path d="M163.252364,378.149205 C154.134545,378.149205 146.283091,371.259241 145.288091,361.988452 L127.938909,200.958088 C126.853455,191.00191 134.035545,182.055778 143.985545,180.991622 C153.845091,179.927465 162.836273,187.106014 163.921727,197.080229 L181.270909,358.074519 C182.356364,368.066771 175.156182,376.994865 165.224273,378.040985 C164.573,378.095095 163.903636,378.149205 163.252364,378.149205 Z" id="Shape"></path>
                        <path d="M303.854909,143.583806 L94.6878182,143.583806 C89.6947273,143.583806 85.6423636,139.976495 85.6423636,135.557539 C85.6423636,131.120547 89.6947273,127.531272 94.6878182,127.531272 L303.854909,127.531272 C308.848,127.531272 312.900364,131.120547 312.900364,135.557539 C312.900364,139.976495 308.848,143.583806 303.854909,143.583806 Z" id="Shape"></path>
                    </g>
                </g>
            </g>
        </g>
    </g>
</svg>