<?xml version="1.0" encoding="UTF-8" standalone="no"?>
<svg width="514px" height="435px" viewBox="0 0 514 435" version="1.1" xmlns="http://www.w3.org/2000/svg" xmlns:xlink="http://www.w3.org/1999/xlink">
    <!-- Generator: Sketch 42 (36781) - http://www.bohemiancoding.com/sketch -->
    <title>icon-visibility</title>
    <desc>Created with Sketch.</desc>
    <defs></defs>
    <g id="Page-1" stroke="none" stroke-width="1" fill="none" fill-rule="evenodd">
        <g id="icon-visibility" fill-rule="nonzero" fill="#000000">
            <g id="eye" transform="translate(35.000000, 51.000000)">
                <g id="Layer_1">
                    <path d="M222,0 C55.5,0 0,166.5 0,166.5 C0,166.5 55.5,333 222,333 C388.5,333 444,166.5 444,166.5 C444,166.5 388.5,0 222,0 Z M222,124.875 C222,147.855469 203.355469,166.5 180.375,166.5 C157.394531,166.5 138.75,147.855469 138.75,124.875 C138.75,101.894531 157.394531,83.25 180.375,83.25 C203.355469,83.25 222,101.894531 222,124.875 Z M350.690625,216.710156 C335.167969,234.834375 317.650781,249.05625 298.746094,259.115625 C275.765625,271.342969 249.923437,277.5 222,277.5 C194.076562,277.5 168.234375,271.342969 145.253906,259.115625 C126.349219,249.05625 108.91875,234.834375 93.309375,216.710156 C77.6132812,198.4125 66.8601562,179.68125 60.35625,166.5 C66.8601562,153.31875 77.6132812,134.5875 93.309375,116.289844 C99.20625,109.439063 105.363281,103.108594 111.780469,97.3851563 C111.260156,101.894531 110.913281,106.403906 110.913281,111.086719 C110.913281,172.396875 160.603125,222.086719 221.913281,222.086719 C283.223437,222.086719 332.913281,172.396875 332.913281,111.086719 C332.913281,106.490625 332.653125,101.894531 332.046094,97.3851563 C338.463281,103.108594 344.620312,109.439063 350.517187,116.289844 C366.213281,134.5875 376.966406,153.31875 383.470312,166.5 C377.139844,179.68125 366.386719,198.4125 350.690625,216.710156 Z" id="Shape"></path>
                </g>
            </g>
        </g>
    </g>
</svg>