<?xml version="1.0" encoding="UTF-8" standalone="no"?>
<svg width="514px" height="435px" viewBox="0 0 514 435" version="1.1" xmlns="http://www.w3.org/2000/svg" xmlns:xlink="http://www.w3.org/1999/xlink">
    <!-- Generator: Sketch 42 (36781) - http://www.bohemiancoding.com/sketch -->
    <title>icon-line</title>
    <desc>Created with Sketch.</desc>
    <defs></defs>
    <g id="Page-1" stroke="none" stroke-width="1" fill="none" fill-rule="evenodd">
        <g id="icon-line" fill-rule="nonzero">
            <g id="Group-6" transform="translate(17.000000, 2.000000)">
                <polygon id="Line" fill="#2CB0C0" points="390.849926 69.5338154 68.6597948 345.553019 84.6929523 365.230521 406.430439 89.5990965"></polygon>
                <path d="M51.1327821,431.637198 C23.0962724,431.637198 0.368190661,408.920948 0.368190661,380.899034 C0.368190661,352.877119 23.0962724,330.16087 51.1327821,330.16087 C79.1692918,330.16087 101.897374,352.877119 101.897374,380.899034 C101.897374,408.920948 79.1692918,431.637198 51.1327821,431.637198 Z M51.1327821,406.268116 C65.1510369,406.268116 76.5150778,394.909991 76.5150778,380.899034 C76.5150778,366.888077 65.1510369,355.529952 51.1327821,355.529952 C37.1145273,355.529952 25.7504864,366.888077 25.7504864,380.899034 C25.7504864,394.909991 37.1145273,406.268116 51.1327821,406.268116 Z" id="Oval-4" fill="#7F7979"></path>
                <path d="M431.867218,101.83913 C403.830708,101.83913 381.102626,79.1228805 381.102626,51.1009662 C381.102626,23.0790518 403.830708,0.362801932 431.867218,0.362801932 C459.903728,0.362801932 482.631809,23.0790518 482.631809,51.1009662 C482.631809,79.1228805 459.903728,101.83913 431.867218,101.83913 Z M431.867218,76.4700483 C445.885473,76.4700483 457.249514,65.1119234 457.249514,51.1009662 C457.249514,37.090009 445.885473,25.7318841 431.867218,25.7318841 C417.848963,25.7318841 406.484922,37.090009 406.484922,51.1009662 C406.484922,65.1119234 417.848963,76.4700483 431.867218,76.4700483 Z" id="Oval-4" fill="#7F7979"></path>
            </g>
        </g>
    </g>
</svg>