<?xml version="1.0" encoding="UTF-8" standalone="no"?>
<svg width="514px" height="435px" viewBox="0 0 514 435" version="1.1" xmlns="http://www.w3.org/2000/svg" xmlns:xlink="http://www.w3.org/1999/xlink">
    <!-- Generator: Sketch 42 (36781) - http://www.bohemiancoding.com/sketch -->
    <title>icon-visibility2</title>
    <desc>Created with Sketch.</desc>
    <defs></defs>
    <g id="Page-1" stroke="none" stroke-width="1" fill="none" fill-rule="evenodd">
        <g id="icon-visibility2" fill-rule="nonzero" fill="#AFAFAF">
            <g id="Group-12" transform="translate(35.000000, 4.000000)">
                <path d="M221.541322,47.061693 C55.3853306,47.061693 0,221.021879 0,221.021879 C0,221.021879 55.3853306,394.982066 221.541322,394.982066 C387.697314,394.982066 443.082645,221.021879 443.082645,221.021879 C443.082645,221.021879 387.697314,47.061693 221.541322,47.061693 Z M221.541322,177.531833 C221.541322,201.541963 202.935313,221.021879 180.002324,221.021879 C157.069336,221.021879 138.463326,201.541963 138.463326,177.531833 C138.463326,153.521703 157.069336,134.041786 180.002324,134.041786 C202.935313,134.041786 221.541322,153.521703 221.541322,177.531833 Z M349.966058,273.481748 C334.475473,292.418039 316.994478,307.277139 298.12885,317.787233 C275.195861,330.562434 249.407067,336.995337 221.541322,336.995337 C193.675578,336.995337 167.886783,330.562434 144.953795,317.787233 C126.088167,307.277139 108.693711,292.418039 93.116587,273.481748 C77.4529232,254.364249 66.7220154,234.793728 60.231547,221.021879 C66.7220154,207.250031 77.4529232,187.67951 93.116587,168.562011 C99.0012784,161.404274 105.145589,154.790163 111.549517,148.810281 C111.03028,153.521703 110.684122,158.233125 110.684122,163.125755 C110.684122,227.182969 160.2713,279.099213 221.454783,279.099213 C282.638265,279.099213 332.225444,227.182969 332.225444,163.125755 C332.225444,158.323729 331.965825,153.521703 331.360048,148.810281 C337.763977,154.790163 343.908287,161.404274 349.792978,168.562011 C365.456642,187.67951 376.18755,207.250031 382.678018,221.021879 C376.360629,234.793728 365.629721,254.364249 349.966058,273.481748 Z" id="Shape"></path>
                <polygon id="Line" points="406.159091 0.397577237 7.86072208 398.448834 35.212898 425.78404 433.511267 27.7327834"></polygon>
            </g>
        </g>
    </g>
</svg>