<?xml version="1.0" encoding="UTF-8" standalone="no"?>
<svg width="514px" height="435px" viewBox="0 0 514 435" version="1.1" xmlns="http://www.w3.org/2000/svg" xmlns:xlink="http://www.w3.org/1999/xlink">
    <!-- Generator: Sketch 42 (36781) - http://www.bohemiancoding.com/sketch -->
    <title>icon-addline</title>
    <desc>Created with Sketch.</desc>
    <defs></defs>
    <g id="Page-1" stroke="none" stroke-width="1" fill="none" fill-rule="evenodd">
        <g id="icon-addline" fill-rule="nonzero">
            <g id="Group-4" transform="translate(250.102447, 217.641018) rotate(-41.000000) translate(-250.102447, -217.641018) translate(1.102447, 130.141018)">
                <polygon id="Line" fill="#2CB0C0" points="235.205103 124.871828 65.805142 124.871828 63.1852476 144.011771 232.842403 144.011771"></polygon>
                <path d="M422.170847,46.7165117 L387.84284,63.6557437 L396.312456,80.8197467 L430.640463,63.8805148 L422.170847,46.7165117 Z M370.678837,72.1253596 L336.350831,89.0645915 L344.820447,106.228595 L379.148453,89.2893627 L370.678837,72.1253596 Z M319.186828,97.5342075 L284.858822,114.473439 L293.328438,131.637442 L327.656444,114.698211 L319.186828,97.5342075 Z" id="Line" fill="#2CB0C0"></path>
                <path d="M38.4344624,172.414059 C17.2930657,172.414059 0.154577484,155.275571 0.154577484,134.134175 C0.154577484,112.992778 17.2930657,95.8542897 38.4344624,95.8542897 C59.575859,95.8542897 76.7143472,112.992778 76.7143472,134.134175 C76.7143472,155.275571 59.575859,172.414059 38.4344624,172.414059 Z M38.4344624,153.274117 C49.0051607,153.274117 57.5744048,144.704873 57.5744048,134.134175 C57.5744048,123.563476 49.0051607,114.994232 38.4344624,114.994232 C27.863764,114.994232 19.2945199,123.563476 19.2945199,134.134175 C19.2945199,144.704873 27.863764,153.274117 38.4344624,153.274117 Z" id="Oval-4" fill="#7F7979"></path>
                <path d="M260.251684,174.302225 C239.110287,174.302225 221.971799,157.163737 221.971799,136.02234 C221.971799,114.880944 239.110287,97.7424555 260.251684,97.7424555 C281.393081,97.7424555 298.531569,114.880944 298.531569,136.02234 C298.531569,157.163737 281.393081,174.302225 260.251684,174.302225 Z M260.251684,155.162283 C270.822382,155.162283 279.391627,146.593039 279.391627,136.02234 C279.391627,125.451642 270.822382,116.882398 260.251684,116.882398 C249.680986,116.882398 241.111742,125.451642 241.111742,136.02234 C241.111742,146.593039 249.680986,155.162283 260.251684,155.162283 Z" id="Oval-4" fill="#7F7979"></path>
                <path d="M459.513196,76.7143472 C438.371799,76.7143472 421.233311,59.575859 421.233311,38.4344624 C421.233311,17.2930657 438.371799,0.154577484 459.513196,0.154577484 C480.654593,0.154577484 497.793081,17.2930657 497.793081,38.4344624 C497.793081,59.575859 480.654593,76.7143472 459.513196,76.7143472 Z M459.513196,57.5744048 C470.083894,57.5744048 478.653138,49.0051607 478.653138,38.4344624 C478.653138,27.863764 470.083894,19.2945199 459.513196,19.2945199 C448.942498,19.2945199 440.373254,27.863764 440.373254,38.4344624 C440.373254,49.0051607 448.942498,57.5744048 459.513196,57.5744048 Z" id="Oval-4" fill="#7F7979"></path>
            </g>
        </g>
    </g>
</svg>